<svg width="66" height="63" viewBox="0 0 66 63" fill="none" xmlns="http://www.w3.org/2000/svg">
<path d="M10.9072 31.5C10.9072 27.0112 14.6761 23.3625 19.3125 23.3625H30.158V18.375H19.3125C11.8291 18.375 5.75562 24.255 5.75562 31.5C5.75562 38.745 11.8291 44.625 19.3125 44.625H30.158V39.6375H19.3125C14.6761 39.6375 10.9072 35.9888 10.9072 31.5ZM22.0239 34.125H43.7149V28.875H22.0239V34.125ZM46.4263 18.375H35.5808V23.3625H46.4263C51.0628 23.3625 54.8316 27.0112 54.8316 31.5C54.8316 35.9888 51.0628 39.6375 46.4263 39.6375H35.5808V44.625H46.4263C53.9097 44.625 59.9832 38.745 59.9832 31.5C59.9832 24.255 53.9097 18.375 46.4263 18.375Z" fill="#B89130"/>
</svg>
